<svg width="21" height="21" viewBox="0 0 21 21" fill="none" xmlns="http://www.w3.org/2000/svg">
<g clip-path="url(#clip0_43_197)">
<path fill-rule="evenodd" clip-rule="evenodd" d="M9.45 15.75H11.55V9.45H9.45V15.75ZM10.5 0C4.725 0 0 4.725 0 10.5C0 16.275 4.725 21 10.5 21C16.275 21 21 16.275 21 10.5C21 4.725 16.275 0 10.5 0ZM10.5 18.9C5.88 18.9 2.1 15.12 2.1 10.5C2.1 5.88 5.88 2.1 10.5 2.1C15.12 2.1 18.9 5.88 18.9 10.5C18.9 15.12 15.12 18.9 10.5 18.9ZM9.45 7.35H11.55V5.25H9.45V7.35Z" fill="#5324B9"/>
</g>
<defs>
<clipPath id="clip0_43_197">
<rect width="21" height="21" fill="white"/>
</clipPath>
</defs>
</svg>
