<svg width="27" height="27" viewBox="0 0 27 27" fill="none" xmlns="http://www.w3.org/2000/svg">
<path d="M12.1969 15.856C12.1969 14.5083 11.1053 13.4166 9.75756 13.4166C8.40979 13.4166 7.31817 14.5083 7.31817 15.856C7.31817 16.1927 7.59138 16.4659 7.92801 16.4659C8.26465 16.4659 8.53786 16.1927 8.53786 15.856C8.53786 15.1828 9.08429 14.6363 9.75756 14.6363C10.4308 14.6363 10.9773 15.1828 10.9773 15.856C10.976 16.4964 10.748 17.1148 10.3308 17.6002L7.46453 20.9422C7.24255 21.1946 7.26694 21.5801 7.52064 21.8033C7.63285 21.9021 7.77799 21.9557 7.92801 21.9545H11.5871C11.9237 21.9545 12.1969 21.6813 12.1969 21.3447C12.1969 21.008 11.9237 20.7348 11.5871 20.7348H9.25748L11.2578 18.393C11.8628 17.6868 12.1957 16.7867 12.1969 15.856Z" fill="#303C42"/>
<path d="M17.6856 14.6363C18.0222 14.6363 18.2954 14.3631 18.2954 14.0265C18.2954 13.6899 18.0222 13.4166 17.6856 13.4166H14.6363C14.3387 13.4191 14.0862 13.635 14.0387 13.9289L13.4288 17.588C13.3678 17.9185 13.5862 18.2369 13.9167 18.2991C14.1167 18.3369 14.3229 18.271 14.4656 18.1247C14.7717 17.8295 15.1876 17.6758 15.6121 17.6978C16.4171 17.7039 17.0696 18.3564 17.0757 19.1614V19.5151C17.0757 20.1884 16.5293 20.7348 15.856 20.7348C15.1827 20.7348 14.6363 20.1884 14.6363 19.5151C14.6363 19.1785 14.3631 18.9053 14.0265 18.9053C13.6898 18.9053 13.4166 19.1785 13.4166 19.5151C13.4166 20.8629 14.5083 21.9545 15.856 21.9545C17.2038 21.9545 18.2954 20.8629 18.2954 19.5151V19.1614C18.2393 17.6197 16.9452 16.4147 15.4035 16.4708C15.2108 16.4781 15.0193 16.5049 14.8315 16.5513L15.1486 14.6363H17.6856Z" fill="#303C42"/>
<path d="M24.3939 2.43939H21.3447C21.008 2.43939 20.7348 2.7126 20.7348 3.04924V6.09848C20.7373 6.77175 20.1933 7.32061 19.52 7.32305C18.8467 7.32549 18.2979 6.78151 18.2954 6.10823C18.293 5.58742 18.6211 5.12394 19.1126 4.95196C19.3541 4.86414 19.5151 4.63606 19.5151 4.37871V0.609848C19.5151 0.273212 19.2419 0 18.9053 0C18.5686 0 18.2954 0.273212 18.2954 0.609848V2.43939H9.14771C8.81108 2.43939 8.53787 2.7126 8.53787 3.04924V6.09848C8.54031 6.77175 7.99632 7.32061 7.32305 7.32305C6.64978 7.32549 6.10092 6.78151 6.09848 6.10823C6.09604 5.58742 6.42413 5.12394 6.91567 4.95196C7.15717 4.86414 7.31817 4.63606 7.31817 4.37871V0.609848C7.31817 0.273212 7.04496 0 6.70832 0C6.37169 0 6.09848 0.273212 6.09848 0.609848V2.43939H2.43939C1.09163 2.43939 0 3.53102 0 4.87878V24.3939C0 25.7417 1.09163 26.8333 2.43939 26.8333H19.8688C20.1933 26.8357 20.5043 26.7077 20.7348 26.4796L26.4796 20.7348C26.7077 20.5043 26.8357 20.1933 26.8333 19.8688V4.87878C26.8333 3.53102 25.7417 2.43939 24.3939 2.43939ZM2.43939 24.3939V9.75756H24.3939V19.3688L24.2475 19.5151H21.9545C20.6068 19.5151 19.5151 20.6068 19.5151 21.9545V24.2475L19.3688 24.3939H2.43939Z" fill="#303C42"/>
</svg>
