<svg width="26" height="26" viewBox="0 0 26 26" fill="none" xmlns="http://www.w3.org/2000/svg">
<path d="M23.4 2.6H20.8V0H18.2V2.6H7.8V0H5.2V2.6H2.6C1.1635 2.6 0 3.7635 0 5.2V23.4C0 24.8365 1.1635 26 2.6 26H23.4C24.8365 26 26 24.8365 26 23.4V5.2C26 3.7635 24.8365 2.6 23.4 2.6ZM23.4 23.4H2.6V10.4H23.4V23.4ZM23.4 7.8H2.6V5.2H23.4V7.8Z" fill="black"/>
<path d="M15.6 13H13V15.6H15.6V13Z" fill="black"/>
<path d="M20.8 13H18.2V15.6H20.8V13Z" fill="black"/>
<path d="M15.6 18.2H13V20.8H15.6V18.2Z" fill="black"/>
<path d="M10.4 18.2H7.80005V20.8H10.4V18.2Z" fill="black"/>
</svg>
