<svg width="27" height="27" viewBox="0 0 27 27" fill="none" xmlns="http://www.w3.org/2000/svg">
<path d="M23.5723 2.96631C23.3877 2.21485 22.7127 1.64005 21.9375 1.64005H5.0625C4.28783 1.64005 3.61389 2.16739 3.42615 2.91885L0.195908 16.0787C0.0657598 16.6061 0 17.1492 0 17.6924V22.7797C0 24.1777 1.13326 25.3109 2.53125 25.3109H24.4688C25.8667 25.3109 27 24.1777 27 22.7797V17.6924C27 17.1482 26.9342 16.6061 26.8041 16.0782L23.5723 2.96631ZM18.5625 18.5625H8.4375L6.75 15.1875H3.84803L6.38086 5.06251H20.6191L23.152 15.1875H20.25L18.5625 18.5625Z" fill="black" fill-opacity="0.75"/>
</svg>
