<svg width="32" height="28" viewBox="0 0 32 28" fill="none" xmlns="http://www.w3.org/2000/svg">
<path d="M1.99107 3.98214H29.866C31.0607 3.98214 31.8571 3.18571 31.8571 1.99107C31.8571 0.796428 31.0607 0 29.866 0H1.99107C0.796428 0 0 0.796428 0 1.99107C0 3.18571 0.796428 3.98214 1.99107 3.98214Z" fill="black"/>
<path d="M1.99107 15.9286H29.866C31.0607 15.9286 31.8571 15.1321 31.8571 13.9375C31.8571 12.7428 31.0607 11.9464 29.866 11.9464H1.99107C0.796428 11.9464 0 12.7428 0 13.9375C0 15.1321 0.796428 15.9286 1.99107 15.9286Z" fill="black"/>
<path d="M1.99107 27.875H29.866C31.0607 27.875 31.8571 27.0785 31.8571 25.8839C31.8571 24.6893 31.0607 23.8928 29.866 23.8928H1.99107C0.796428 23.8928 0 24.6893 0 25.8839C0 27.0785 0.796428 27.875 1.99107 27.875Z" fill="black"/>
</svg>
