<svg width="24" height="21" viewBox="0 0 24 21" fill="none" xmlns="http://www.w3.org/2000/svg">
<path d="M16.775 3.40906L20.5333 7.1094C20.6917 7.26529 20.6917 7.51963 20.5333 7.67552L11.4333 16.6351L7.56667 17.0576C7.05 17.1151 6.6125 16.6843 6.67083 16.1756L7.1 12.3686L16.2 3.40906C16.3583 3.25317 16.6167 3.25317 16.775 3.40906ZM23.525 2.46962L21.4917 0.467669C20.8583 -0.15589 19.8292 -0.15589 19.1917 0.467669L17.7167 1.91991C17.5583 2.0758 17.5583 2.33014 17.7167 2.48603L21.475 6.18636C21.6333 6.34225 21.8917 6.34225 22.05 6.18636L23.525 4.73413C24.1583 4.10647 24.1583 3.09318 23.525 2.46962ZM16 14.1983V18.3745H2.66667V5.24692H12.2417C12.375 5.24692 12.5 5.19359 12.5958 5.10334L14.2625 3.46239C14.5792 3.15062 14.3542 2.62141 13.9083 2.62141H2C0.895833 2.62141 0 3.50342 0 4.59055V19.0309C0 20.118 0.895833 21 2 21H16.6667C17.7708 21 18.6667 20.118 18.6667 19.0309V12.5573C18.6667 12.1184 18.1292 11.901 17.8125 12.2086L16.1458 13.8496C16.0542 13.9439 16 14.067 16 14.1983Z" fill="#5324B9"/>
</svg>
