<svg width="16" height="28" viewBox="0 0 16 28" fill="none" xmlns="http://www.w3.org/2000/svg">
<path d="M14.6247 1.5276e-06H1.37529C1.01139 -0.000579719 0.66217 0.164732 0.404319 0.45963C0.146468 0.754529 0.00107233 1.1549 6.32488e-05 1.57282V26.4251C-0.0025578 26.736 0.0763389 27.0405 0.22649 27.2992C0.376642 27.5579 0.591098 27.7587 0.841962 27.8754C1.09212 27.9968 1.36797 28.0305 1.63475 27.9721C1.90152 27.9137 2.14726 27.7659 2.341 27.5473L7.8362 21.3479C7.87997 21.2987 7.93877 21.2712 8 21.2712C8.06124 21.2712 8.12004 21.2987 8.16381 21.3479L13.6609 27.5451C13.8545 27.7639 14.1003 27.9119 14.3671 27.9703C14.6339 28.0287 14.9098 27.9949 15.16 27.8732C15.4102 27.7563 15.624 27.5557 15.7738 27.2975C15.9235 27.0393 16.0023 26.7354 15.9999 26.4251V1.57282C15.9989 1.1549 15.8535 0.754529 15.5957 0.45963C15.3378 0.164732 14.9886 -0.000579719 14.6247 1.5276e-06ZM14.8571 26.4251C14.858 26.4767 14.8449 26.5274 14.8197 26.5701C14.7944 26.6128 14.7582 26.6455 14.7161 26.6636C14.674 26.6862 14.6267 26.6931 14.5809 26.6833C14.5351 26.6735 14.4931 26.6475 14.4609 26.6089L8.96381 20.4117C8.70561 20.1229 8.35945 19.9613 7.99905 19.9613C7.63866 19.9613 7.2925 20.1229 7.0343 20.4117L1.5391 26.6089C1.50671 26.6472 1.46477 26.673 1.41905 26.6828C1.37334 26.6926 1.32611 26.6859 1.28386 26.6636C1.24177 26.6455 1.20561 26.6128 1.18036 26.5701C1.15511 26.5274 1.14203 26.4767 1.14291 26.4251V1.57282C1.14391 1.503 1.1689 1.43647 1.21243 1.38771C1.25595 1.33895 1.31449 1.31192 1.37529 1.31251H14.6247C14.6855 1.31192 14.7441 1.33895 14.7876 1.38771C14.8311 1.43647 14.8561 1.503 14.8571 1.57282V26.4251Z" fill="#5324B9"/>
</svg>
