<svg width="21" height="21" viewBox="0 0 21 21" fill="none" xmlns="http://www.w3.org/2000/svg">
<g clip-path="url(#clip0_43_177)">
<path d="M11.375 0H9.625C8.92881 0 8.26113 0.276562 7.76884 0.768845C7.27656 1.26113 7 1.92881 7 2.625V3.5H1.75C1.51794 3.5 1.29538 3.59219 1.13128 3.75628C0.967187 3.92038 0.875 4.14294 0.875 4.375C0.875 4.60706 0.967187 4.82962 1.13128 4.99372C1.29538 5.15781 1.51794 5.25 1.75 5.25H2.625V17.5C2.625 18.4283 2.99375 19.3185 3.65013 19.9749C4.3065 20.6313 5.19674 21 6.125 21H14.875C15.8033 21 16.6935 20.6313 17.3499 19.9749C18.0063 19.3185 18.375 18.4283 18.375 17.5V5.25H19.25C19.4821 5.25 19.7046 5.15781 19.8687 4.99372C20.0328 4.82962 20.125 4.60706 20.125 4.375C20.125 4.14294 20.0328 3.92038 19.8687 3.75628C19.7046 3.59219 19.4821 3.5 19.25 3.5H14V2.625C14 1.92881 13.7234 1.26113 13.2312 0.768845C12.7389 0.276562 12.0712 0 11.375 0ZM8.75 2.625C8.75 2.39294 8.84219 2.17038 9.00628 2.00628C9.17038 1.84219 9.39294 1.75 9.625 1.75H11.375C11.6071 1.75 11.8296 1.84219 11.9937 2.00628C12.1578 2.17038 12.25 2.39294 12.25 2.625V3.5H8.75V2.625ZM16.625 17.5C16.625 17.9641 16.4406 18.4092 16.1124 18.7374C15.7842 19.0656 15.3391 19.25 14.875 19.25H6.125C5.66087 19.25 5.21575 19.0656 4.88756 18.7374C4.55937 18.4092 4.375 17.9641 4.375 17.5V5.25H16.625V17.5Z" fill="#DD1B1B"/>
<path d="M10.5 7.875C10.2679 7.875 10.0454 7.96719 9.88128 8.13128C9.71719 8.29538 9.625 8.51794 9.625 8.75V15.75C9.625 15.9821 9.71719 16.2046 9.88128 16.3687C10.0454 16.5328 10.2679 16.625 10.5 16.625C10.7321 16.625 10.9546 16.5328 11.1187 16.3687C11.2828 16.2046 11.375 15.9821 11.375 15.75V8.75C11.375 8.51794 11.2828 8.29538 11.1187 8.13128C10.9546 7.96719 10.7321 7.875 10.5 7.875Z" fill="#DD1B1B"/>
<path d="M13.125 15.75C13.125 15.9821 13.2172 16.2046 13.3813 16.3687C13.5454 16.5328 13.7679 16.625 14 16.625C14.2321 16.625 14.4546 16.5328 14.6187 16.3687C14.7828 16.2046 14.875 15.9821 14.875 15.75V8.75C14.875 8.51794 14.7828 8.29538 14.6187 8.13128C14.4546 7.96719 14.2321 7.875 14 7.875C13.7679 7.875 13.5454 7.96719 13.3813 8.13128C13.2172 8.29538 13.125 8.51794 13.125 8.75V15.75Z" fill="#DD1B1B"/>
<path d="M7 7.875C6.76794 7.875 6.54538 7.96719 6.38128 8.13128C6.21719 8.29538 6.125 8.51794 6.125 8.75V15.75C6.125 15.9821 6.21719 16.2046 6.38128 16.3687C6.54538 16.5328 6.76794 16.625 7 16.625C7.23206 16.625 7.45462 16.5328 7.61872 16.3687C7.78281 16.2046 7.875 15.9821 7.875 15.75V8.75C7.875 8.51794 7.78281 8.29538 7.61872 8.13128C7.45462 7.96719 7.23206 7.875 7 7.875Z" fill="#DD1B1B"/>
</g>
<defs>
<clipPath id="clip0_43_177">
<rect width="21" height="21" fill="white"/>
</clipPath>
</defs>
</svg>
